<svg width="40" height="40" viewBox="0 0 40 40" fill="none" xmlns="http://www.w3.org/2000/svg">
<rect width="40" height="40" rx="20" fill="#D9D1E6"/>
<rect width="20" height="20" transform="translate(10 10)" fill="white" fill-opacity="0.01" style="mix-blend-mode:multiply"/>
<path d="M23.125 11.25C22.2466 11.2498 21.3804 11.4553 20.5958 11.8501C19.8112 12.245 19.1299 12.8181 18.6067 13.5236C18.0834 14.2291 17.7327 15.0474 17.5827 15.9129C17.4326 16.7783 17.4874 17.6669 17.7426 18.5074L11.25 25V28.75H15L21.4926 22.2574C22.2663 22.4923 23.0815 22.5576 23.8828 22.449C24.684 22.3403 25.4524 22.0602 26.1356 21.6276C26.8188 21.1951 27.4007 20.6204 27.8417 19.9426C28.2826 19.2649 28.5723 18.5 28.6909 17.7002C28.8095 16.9003 28.7543 16.0843 28.529 15.3078C28.3038 14.5312 27.9137 13.8123 27.3854 13.2002C26.8572 12.588 26.2032 12.0969 25.4679 11.7604C24.7327 11.4238 23.9336 11.2497 23.125 11.25ZM23.125 21.25C22.6946 21.2497 22.2667 21.1861 21.8549 21.0611L21.1381 20.8438L18.6204 23.3615L17.7588 22.5L16.875 23.3838L17.7367 24.2454L16.7455 25.2367L15.8838 24.375L15 25.2588L15.8617 26.1204L14.4822 27.5H12.5V25.5177L19.1559 18.8617L18.9389 18.145C18.6717 17.2644 18.6891 16.3219 18.9885 15.4517C19.2879 14.5815 19.854 13.8279 20.6064 13.298C21.3588 12.7681 22.2592 12.489 23.1794 12.5003C24.0995 12.5117 24.9927 12.8129 25.7319 13.3611C26.471 13.9094 27.0184 14.6767 27.2963 15.554C27.5742 16.4313 27.5683 17.3739 27.2796 18.2477C26.9908 19.1215 26.4339 19.882 25.688 20.421C24.9421 20.96 24.0453 21.2501 23.125 21.25Z" fill="#8133F1"/>
<path d="M23.75 17.5C24.4404 17.5 25 16.9404 25 16.25C25 15.5596 24.4404 15 23.75 15C23.0596 15 22.5 15.5596 22.5 16.25C22.5 16.9404 23.0596 17.5 23.75 17.5Z" fill="#8133F1"/>
</svg>
