<svg width="60" height="52" viewBox="0 0 60 52" fill="none" xmlns="http://www.w3.org/2000/svg">
<mask id="path-1-inside-1_187_2471" fill="white">
<path fill-rule="evenodd" clip-rule="evenodd" d="M56.3555 45.6494L29.9998 0L2.8619 47.0042C5.49058 42.9782 10.0294 40.3185 15.188 40.3185C22.2527 40.3185 28.155 45.3069 29.5805 51.9615H29.7949C30.8661 44.869 36.9742 39.4331 44.3489 39.4331C49.3043 39.4331 53.6877 41.8874 56.3555 45.6494ZM57.7301 48.0304C58.2939 49.2591 58.6941 50.5788 58.903 51.9615L59.9998 51.9615L57.7301 48.0304ZM0.795449 51.9615C1.06359 50.7097 1.49014 49.5169 2.05304 48.4052L-0.000213623 51.9615H0.795449Z"/>
</mask>
<path fill-rule="evenodd" clip-rule="evenodd" d="M56.3555 45.6494L29.9998 0L2.8619 47.0042C5.49058 42.9782 10.0294 40.3185 15.188 40.3185C22.2527 40.3185 28.155 45.3069 29.5805 51.9615H29.7949C30.8661 44.869 36.9742 39.4331 44.3489 39.4331C49.3043 39.4331 53.6877 41.8874 56.3555 45.6494ZM57.7301 48.0304C58.2939 49.2591 58.6941 50.5788 58.903 51.9615L59.9998 51.9615L57.7301 48.0304ZM0.795449 51.9615C1.06359 50.7097 1.49014 49.5169 2.05304 48.4052L-0.000213623 51.9615H0.795449Z" fill="url(#paint0_linear_187_2471)"/>
<path d="M29.9998 0L30.8658 -0.5L29.1338 -0.5L29.9998 0ZM56.3555 45.6494L55.5398 46.2279L57.2215 45.1494L56.3555 45.6494ZM2.8619 47.0042L1.99588 46.5042L3.69922 47.5509L2.8619 47.0042ZM29.5805 51.9615L28.6027 52.171L29.5805 52.9615V51.9615ZM29.7949 51.9615V52.9615L30.7837 52.1109L29.7949 51.9615ZM57.7301 48.0304L58.5962 47.5304L56.8212 48.4474L57.7301 48.0304ZM58.903 51.9615L57.9142 52.1109L58.903 52.9615V51.9615ZM59.9998 51.9615V52.9615L60.8658 51.4615L59.9998 51.9615ZM0.795449 51.9615L0.795449 52.9615L1.77327 52.171L0.795449 51.9615ZM2.05304 48.4052L2.9452 48.8569L1.18701 47.9052L2.05304 48.4052ZM-0.000213623 51.9615L-0.866239 51.4615L-0.000213623 52.9615L-0.000213623 51.9615ZM29.1338 0.5L55.4895 46.1494L57.2215 45.1494L30.8658 -0.5L29.1338 0.5ZM3.72793 47.5042L30.8658 0.5L29.1338 -0.5L1.99588 46.5042L3.72793 47.5042ZM3.69922 47.5509C6.15148 43.7951 10.3819 41.3185 15.188 41.3185V39.3185C9.67689 39.3185 4.82969 42.1613 2.02458 46.4575L3.69922 47.5509ZM15.188 41.3185C21.7698 41.3185 27.2736 45.9663 28.6027 52.171L30.5583 51.7521C29.0365 44.6475 22.7356 39.3185 15.188 39.3185V41.3185ZM29.7949 50.9615H29.5805V52.9615H29.7949V50.9615ZM30.7837 52.1109C31.7824 45.4983 37.478 40.4331 44.3489 40.4331V38.4331C36.4705 38.4331 29.9498 44.2397 28.8061 51.8122L30.7837 52.1109ZM44.3489 40.4331C48.9658 40.4331 53.0511 42.7184 55.5398 46.2279L57.1712 45.071C54.3243 41.0564 49.6427 38.4331 44.3489 38.4331V40.4331ZM56.8212 48.4474C57.3466 49.5924 57.7195 50.8221 57.9142 52.1109L59.8918 51.8122C59.6688 50.3356 59.2412 48.9259 58.639 47.6134L56.8212 48.4474ZM59.9998 50.9615L58.903 50.9615V52.9615L59.9998 52.9615V50.9615ZM56.8641 48.5304L59.1338 52.4615L60.8658 51.4615L58.5962 47.5304L56.8641 48.5304ZM1.77327 52.171C2.02313 51.0045 2.42059 49.893 2.9452 48.8569L1.16088 47.9535C0.559693 49.1408 0.104047 50.415 -0.182369 51.7521L1.77327 52.171ZM0.865812 52.4615L2.91907 48.9052L1.18701 47.9052L-0.866239 51.4615L0.865812 52.4615ZM0.795449 50.9615H-0.000213623L-0.000213623 52.9615H0.795449L0.795449 50.9615Z" fill="#8300EA" mask="url(#path-1-inside-1_187_2471)"/>
<defs>
<linearGradient id="paint0_linear_187_2471" x1="30" y1="0" x2="30" y2="51.9615" gradientUnits="userSpaceOnUse">
<stop stop-color="#EFD5FF"/>
<stop offset="1" stop-color="#515ADA"/>
</linearGradient>
</defs>
</svg>
