<svg width="15" height="15" viewBox="0 0 15 15" fill="none" xmlns="http://www.w3.org/2000/svg">
<path d="M7.5 3.5L8.215 4.1965L5.425 7H11.5V8H5.425L8.215 10.7865L7.5 11.5L3.5 7.5L7.5 3.5Z" fill="#333333"/>
<path d="M7.5 14.5C6.11553 14.5 4.76216 14.0895 3.61101 13.3203C2.45987 12.5511 1.56266 11.4579 1.03285 10.1788C0.503033 8.8997 0.36441 7.49224 0.634506 6.13437C0.904603 4.7765 1.57129 3.52922 2.55026 2.55026C3.52922 1.57129 4.7765 0.904603 6.13437 0.634506C7.49224 0.36441 8.8997 0.503033 10.1788 1.03285C11.4579 1.56266 12.5511 2.45987 13.3203 3.61101C14.0895 4.76216 14.5 6.11553 14.5 7.5C14.4979 9.35588 13.7597 11.1351 12.4474 12.4474C11.1351 13.7597 9.35588 14.4979 7.5 14.5ZM7.5 1.5C6.31332 1.5 5.15328 1.8519 4.16658 2.51119C3.17989 3.17047 2.41085 4.10755 1.95673 5.2039C1.5026 6.30026 1.38378 7.50666 1.61529 8.67054C1.8468 9.83443 2.41825 10.9035 3.25736 11.7426C4.09648 12.5818 5.16558 13.1532 6.32946 13.3847C7.49335 13.6162 8.69975 13.4974 9.7961 13.0433C10.8925 12.5892 11.8295 11.8201 12.4888 10.8334C13.1481 9.84673 13.5 8.68669 13.5 7.5C13.4982 5.90926 12.8655 4.38419 11.7406 3.25936C10.6158 2.13454 9.09075 1.50182 7.5 1.5Z" fill="#333333"/>
</svg>
